<svg width="17" height="21" viewBox="0 0 17 21" fill="none" xmlns="http://www.w3.org/2000/svg">
<path d="M13 9V5.25C13 4.05653 12.5259 2.91193 11.682 2.06802C10.8381 1.22411 9.69347 0.75 8.5 0.75C7.30653 0.75 6.16193 1.22411 5.31802 2.06802C4.47411 2.91193 4 4.05653 4 5.25V9M3.25 20.25H13.75C14.3467 20.25 14.919 20.0129 15.341 19.591C15.7629 19.169 16 18.5967 16 18V11.25C16 10.6533 15.7629 10.081 15.341 9.65901C14.919 9.23705 14.3467 9 13.75 9H3.25C2.65326 9 2.08097 9.23705 1.65901 9.65901C1.23705 10.081 1 10.6533 1 11.25V18C1 18.5967 1.23705 19.169 1.65901 19.591C2.08097 20.0129 2.65326 20.25 3.25 20.25Z" stroke="#656B75" stroke-width="1.5" stroke-linecap="round" stroke-linejoin="round"/>
</svg>
