<svg width="17" height="21" viewBox="0 0 17 21" fill="none" xmlns="http://www.w3.org/2000/svg">
<path d="M12.25 4.5C12.25 5.49456 11.8549 6.44839 11.1516 7.15165C10.4484 7.85491 9.49454 8.25 8.49998 8.25C7.50541 8.25 6.55159 7.85491 5.84833 7.15165C5.14506 6.44839 4.74998 5.49456 4.74998 4.5C4.74998 3.50544 5.14506 2.55161 5.84833 1.84835C6.55159 1.14509 7.50541 0.75 8.49998 0.75C9.49454 0.75 10.4484 1.14509 11.1516 1.84835C11.8549 2.55161 12.25 3.50544 12.25 4.5ZM1.00098 18.618C1.03311 16.6504 1.83731 14.7742 3.24015 13.394C4.64299 12.0139 6.53206 11.2405 8.49998 11.2405C10.4679 11.2405 12.357 12.0139 13.7598 13.394C15.1626 14.7742 15.9668 16.6504 15.999 18.618C13.6467 19.6978 11.0882 20.2546 8.49998 20.25C5.82398 20.25 3.28398 19.666 1.00098 18.618Z" stroke="#656B75" stroke-width="1.5" stroke-linecap="round" stroke-linejoin="round"/>
</svg>
